<svg id="Layer_1" data-name="Layer 1" xmlns="http://www.w3.org/2000/svg" xmlns:xlink="http://www.w3.org/1999/xlink" viewBox="0 0 1080 1080"><defs><style>.cls-1{fill:#fff;}.cls-2{fill:url(#linear-gradient);}.cls-3{fill:url(#linear-gradient-2);}.cls-4{fill:url(#linear-gradient-3);}.cls-5{fill:url(#linear-gradient-4);}.cls-6{fill:url(#linear-gradient-5);}.cls-7{fill:url(#linear-gradient-6);}.cls-8{fill:url(#linear-gradient-7);}.cls-10,.cls-11,.cls-9{fill:none;stroke-miterlimit:10;}.cls-10,.cls-9{stroke-linecap:round;stroke-width:37.42px;}.cls-9{stroke:url(#linear-gradient-8);}.cls-10{stroke:url(#linear-gradient-9);}.cls-11{stroke-width:29.4px;stroke:url(#linear-gradient-10);}</style><linearGradient id="linear-gradient" x1="638.37" y1="190.86" x2="201.63" y2="809.89" gradientUnits="userSpaceOnUse"><stop offset="0" stop-color="#ee5a37"/><stop offset="0.04" stop-color="#ee563c"/><stop offset="0.18" stop-color="#ec484e"/><stop offset="0.29" stop-color="#ec4354"/><stop offset="0.61" stop-color="#ce264a"/><stop offset="0.8" stop-color="#c5223c"/><stop offset="1" stop-color="#bf2033"/></linearGradient><linearGradient id="linear-gradient-2" x1="741.28" y1="263.46" x2="304.54" y2="882.5" xlink:href="#linear-gradient"/><linearGradient id="linear-gradient-3" x1="648.42" y1="197.95" x2="211.68" y2="816.98" xlink:href="#linear-gradient"/><linearGradient id="linear-gradient-4" x1="811.29" y1="312.86" x2="374.55" y2="931.89" xlink:href="#linear-gradient"/><linearGradient id="linear-gradient-5" x1="704.57" y1="237.56" x2="267.83" y2="856.59" xlink:href="#linear-gradient"/><linearGradient id="linear-gradient-6" x1="887.51" y1="366.64" x2="450.77" y2="985.67" xlink:href="#linear-gradient"/><linearGradient id="linear-gradient-7" x1="766.93" y1="281.56" x2="330.19" y2="900.59" xlink:href="#linear-gradient"/><linearGradient id="linear-gradient-8" x1="4510.59" y1="21086.37" x2="4319.66" y2="21205.29" gradientTransform="translate(4675.89 21965.07) rotate(180)" gradientUnits="userSpaceOnUse"><stop offset="0" stop-color="#f05a37"/><stop offset="0.02" stop-color="#f0563b"/><stop offset="0.14" stop-color="#ee474d"/><stop offset="0.22" stop-color="#ee4253"/><stop offset="0.57" stop-color="#e43850"/><stop offset="1" stop-color="#d1264a"/></linearGradient><linearGradient id="linear-gradient-9" x1="3986.68" y1="21617.31" x2="3758.49" y2="21759.43" gradientTransform="translate(4675.89 21965.07) rotate(180)" gradientUnits="userSpaceOnUse"><stop offset="0.32" stop-color="#ce264a"/><stop offset="0.64" stop-color="#c92442"/><stop offset="1" stop-color="#bf2033"/></linearGradient><linearGradient id="linear-gradient-10" x1="25.3" y1="540" x2="1054.7" y2="540" xlink:href="#linear-gradient"/></defs><title>191121_Web_Badges_Gluten_Free</title><circle class="cls-1" cx="540" cy="540" r="500"/><path class="cls-2" d="M540.09,230.93l-.23-.16C470,278.26,469.62,381,539.05,429.08l1.09.75.67-.47C610.39,381.35,610,278.43,540.09,230.93Z"/><path class="cls-3" d="M547.55,516.22l.74.11c76.05,11.59,140-56.84,123.3-131.94l-.05-.24h0c-75.89-12.09-140.28,55.75-124.24,130.9Z"/><path class="cls-4" d="M408.46,384.15h0l0,.24c-16.71,75.1,47.25,143.53,123.3,131.94l.74-.11.25-1.17C548.74,439.9,484.35,372.06,408.46,384.15Z"/><path class="cls-5" d="M548.67,660l.85.13c87.41,13.32,160.91-65.33,141.71-151.64l-.06-.28C604,494.31,530,572.28,548.39,658.65Z"/><path class="cls-6" d="M388.83,508.2l-.06.28c-19.2,86.31,54.3,165,141.71,151.64l.85-.13.28-1.34C550,572.28,476.05,494.31,388.83,508.2Z"/><path class="cls-7" d="M710.87,645.77l-.07-.32c-98.54-15.7-182.15,72.4-161.33,170l.33,1.52,1,.15C649.52,832.15,732.56,743.28,710.87,645.77Z"/><path class="cls-8" d="M369.2,645.45l-.07.32c-21.69,97.51,61.35,186.38,160.11,171.33l1-.15.33-1.52C551.35,717.85,467.74,629.75,369.2,645.45Z"/><line class="cls-9" x1="192.7" y1="887.3" x2="328.83" y2="751.17"/><line class="cls-10" x1="719.31" y1="360.69" x2="887.3" y2="192.7"/><circle class="cls-11" cx="540" cy="540" r="500"/></svg>