<svg id="Layer_1" data-name="Layer 1" xmlns="http://www.w3.org/2000/svg" xmlns:xlink="http://www.w3.org/1999/xlink" viewBox="0 0 1080 1080"><defs><style>.cls-1{fill:#fff;}.cls-2{fill:none;stroke-miterlimit:10;stroke-width:29.4px;stroke:url(#linear-gradient);}.cls-3{fill:url(#linear-gradient-2);}.cls-4{fill:url(#linear-gradient-3);}.cls-5{fill:url(#linear-gradient-4);}</style><linearGradient id="linear-gradient" x1="25.3" y1="540" x2="1054.7" y2="540" gradientUnits="userSpaceOnUse"><stop offset="0" stop-color="#ee5a37"/><stop offset="0.04" stop-color="#ee563c"/><stop offset="0.18" stop-color="#ec484e"/><stop offset="0.29" stop-color="#ec4354"/><stop offset="0.61" stop-color="#ce264a"/><stop offset="0.8" stop-color="#c5223c"/><stop offset="1" stop-color="#bf2033"/></linearGradient><linearGradient id="linear-gradient-2" x1="735.33" y1="536.38" x2="-23.76" y2="900.49" xlink:href="#linear-gradient"/><linearGradient id="linear-gradient-3" x1="672.52" y1="405.44" x2="-86.57" y2="769.55" xlink:href="#linear-gradient"/><linearGradient id="linear-gradient-4" x1="686.6" y1="434.79" x2="-72.49" y2="798.9" xlink:href="#linear-gradient"/></defs><title>191126_Web_Badges_Halal</title><circle class="cls-1" cx="540" cy="540" r="500"/><circle class="cls-2" cx="540" cy="540" r="500"/><path class="cls-3" d="M394.68,682.35a273.55,273.55,0,0,0,73-25.62c37.18-19.49,67.49-46.3,87-84.65,8.62-16.93,12.93-35.35,18.45-53.37,7.2-23.47,14.71-46.84,22.09-70.26a10.6,10.6,0,0,1,.64-1.33c5.7,2.13,7.77,7.08,8.33,12.34,1.17,10.85,2.45,21.8,2.26,32.68-.45,25.72-2,51.43-2.57,77.15-.33,16.34.33,32.75,4.81,48.6a69.47,69.47,0,0,0,6.43,15.21c4,7.13,10.46,10.88,18.58,12.15,20.43,3.19,40.89,5.21,61.54,2.53,12.17-1.59,23.89-4.73,34.49-11.34,1.41-.89,2.72-1.93,4.68-3.33A170.47,170.47,0,0,0,695.88,614c-8.63-2.92-17.42-5.35-26.6-4.29-12.69,1.47-23.12,8.23-33.08,15.8-1,.75-1.74,1.81-3.27,2.23a12.83,12.83,0,0,1,.92-2.68c6.63-10.74,12.38-22.2,20.16-32,15.43-19.44,31.71-24,54.55-15.07,12.39,4.85,24,11.95,35.52,18.81,13.13,7.82,24.79,18.49,39.87,22.49,11.27,3,22.84,4.81,34.31,7a94.21,94.21,0,0,0,9.77.78,15.73,15.73,0,0,1-1.23,2.58c-7.23,9.59-14.45,19.2-21.82,28.68-.9,1.16-2.81,2.52-4,2.3-24.27-4.46-47.68-.82-71.08,6.33a315.88,315.88,0,0,1-65.51,13.15c-12.16,1-24.31,1.35-36.26-1.91C610.26,673.32,598.6,661.82,593,644c-4.64-14.65-6.11-29.85-6-45.1.23-26.35,1.17-52.69,1.84-79.87-1,3.3-1.86,6.08-2.65,8.89C577.42,559.06,568,590,553.92,619.19c-15.48,32.1-41.7,50.73-74.38,61-26.87,8.47-54.12,8.33-81.51,3.23C397.29,683.32,396.58,683,394.68,682.35Z"/><path class="cls-4" d="M428.06,393c4.51,15.16,7.84,30.67,19.06,41.78-3.06,8.15-6.44,16-8.91,24.08-3.64,12-3.42,24.46-3.39,36.84.07,26,.48,52.06.31,78.09-.09,12.53-1.13,25.05-1.81,37.58a41.26,41.26,0,0,1-7.44,21.74c-15.15,21.8-33.64,39.39-59.12,47.79-27.92,9.21-63.68-.64-81.4-22.1-9.19-11.14-12.73-24.29-11.89-38.55,1.47-25.18,14.34-44.7,31.2-62.13-2.51,5.54-5.25,11-7.49,16.65-4.82,12.12-8.92,24.44-7.83,37.84.76,9.22,4.43,16.69,12,22,12.39,8.71,26.36,12.89,41.1,14.34a105.46,105.46,0,0,0,50-7.18c14.29-5.69,21.15-16,23.41-31,3.9-25.77,3.82-51.64,2.06-77.44-2.49-36.69-6.06-73.3-9.13-109.94-.1-1.2-.28-2.73.31-3.59C415.3,411,421.59,402.14,428.06,393Z"/><path class="cls-5" d="M524.83,600c-4.57-13.11-8.89-26.83-14.12-40.17-5.6-14.34-15.87-24.41-29.77-30.74-6.53-3-13-6.16-19.26-9.66-9.89-5.51-14-14.43-13.6-25.72.27-7.46.39-14.93.8-22.38.19-3.29.95-6.54,1.61-10.86,24,11.5,43.27,27.36,57.46,49.34C525.93,537.63,529.87,568.22,524.83,600Z"/></svg>