<svg id="Layer_1" data-name="Layer 1" xmlns="http://www.w3.org/2000/svg" xmlns:xlink="http://www.w3.org/1999/xlink" viewBox="0 0 1080 1080"><defs><style>.cls-1{fill:#fff;}.cls-2,.cls-4,.cls-5{fill:none;stroke-miterlimit:10;}.cls-2{stroke-width:29.4px;stroke:url(#linear-gradient);}.cls-3{fill:url(#linear-gradient-2);}.cls-4,.cls-5{stroke-linecap:round;stroke-width:37.42px;}.cls-4{stroke:url(#linear-gradient-3);}.cls-5{stroke:url(#linear-gradient-4);}</style><linearGradient id="linear-gradient" x1="25.3" y1="540" x2="1054.7" y2="540" gradientUnits="userSpaceOnUse"><stop offset="0" stop-color="#ee5a37"/><stop offset="0.04" stop-color="#ee563c"/><stop offset="0.18" stop-color="#ec484e"/><stop offset="0.29" stop-color="#ec4354"/><stop offset="0.61" stop-color="#ce264a"/><stop offset="0.8" stop-color="#c5223c"/><stop offset="1" stop-color="#bf2033"/></linearGradient><linearGradient id="linear-gradient-2" x1="398.21" y1="256.28" x2="724.81" y2="909.47" gradientUnits="userSpaceOnUse"><stop offset="0" stop-color="#ee5a37"/><stop offset="0.04" stop-color="#ee563c"/><stop offset="0.18" stop-color="#ec484e"/><stop offset="0.29" stop-color="#ec4354"/><stop offset="0.65" stop-color="#ce264a"/><stop offset="0.83" stop-color="#c5223c"/><stop offset="1" stop-color="#bf2033"/></linearGradient><linearGradient id="linear-gradient-3" x1="108.45" y1="18856.77" x2="-147.27" y2="19016.05" gradientTransform="translate(269.06 19727.94) rotate(180)" gradientUnits="userSpaceOnUse"><stop offset="0" stop-color="#f05a37"/><stop offset="0.02" stop-color="#f0563b"/><stop offset="0.14" stop-color="#ee474d"/><stop offset="0.22" stop-color="#ee4253"/><stop offset="0.57" stop-color="#e43850"/><stop offset="1" stop-color="#d1264a"/></linearGradient><linearGradient id="linear-gradient-4" x1="-398" y1="19362.54" x2="-650.07" y2="19519.54" gradientTransform="translate(269.06 19727.94) rotate(180)" gradientUnits="userSpaceOnUse"><stop offset="0.32" stop-color="#ce264a"/><stop offset="0.64" stop-color="#c92442"/><stop offset="1" stop-color="#bf2033"/></linearGradient></defs><title>191121_Web_Badges</title><circle class="cls-1" cx="540" cy="540" r="500"/><circle class="cls-2" cx="540" cy="540" r="500"/><path class="cls-3" d="M749.21,573.73c-28.1-28.06-62.4-45.41-99.15-59.67-34.81-13.51-59.74-38.95-70-75.47-10.11-36.15-25.79-69.08-48.25-99-18.37-24.45-40.59-44.06-69.19-55.9-86.08-35.65-175.14,18.87-178.83,114.71-.66,34.63,12.59,69.42,39.06,99.09,28.5,31.94,65.18,50.93,104.26,66.83,39.65,16.14,66,45.62,80,86.39,7.48,21.72,14.87,43.84,25.65,64,27,50.43,66.72,84.6,126,91.7,68.48,8.2,132.11-43.74,137-112.36C799.14,646.62,782.46,606.93,749.21,573.73ZM394.45,342.46a9.77,9.77,0,1,1,9.77-9.77A9.77,9.77,0,0,1,394.45,342.46Zm22.49,17.26a6,6,0,1,1,6-6A6,6,0,0,1,416.94,359.72ZM432.3,337.4A13.74,13.74,0,1,1,446,323.66,13.74,13.74,0,0,1,432.3,337.4Z"/><line class="cls-4" x1="192.7" y1="887.3" x2="384.24" y2="695.76"/><line class="cls-5" x1="698.88" y1="381.12" x2="887.3" y2="192.7"/></svg>