<svg id="Layer_1" data-name="Layer 1" xmlns="http://www.w3.org/2000/svg" xmlns:xlink="http://www.w3.org/1999/xlink" viewBox="0 0 1080 1080"><defs><style>.cls-1{fill:#fff;}.cls-2,.cls-3,.cls-4,.cls-5,.cls-6,.cls-7{stroke:#fff;stroke-linejoin:round;stroke-width:8.02px;}.cls-2,.cls-3,.cls-4,.cls-5,.cls-6,.cls-7,.cls-8,.cls-9{stroke-linecap:round;}.cls-2{fill:url(#linear-gradient);}.cls-3{fill:url(#linear-gradient-2);}.cls-4{fill:url(#linear-gradient-3);}.cls-5{fill:url(#linear-gradient-4);}.cls-6{fill:url(#linear-gradient-5);}.cls-7{fill:url(#linear-gradient-6);}.cls-10,.cls-8,.cls-9{fill:none;stroke-miterlimit:10;}.cls-8,.cls-9{stroke-width:37.42px;}.cls-8{stroke:url(#linear-gradient-7);}.cls-9{stroke:url(#linear-gradient-8);}.cls-10{stroke-width:29.4px;stroke:url(#linear-gradient-9);}</style><linearGradient id="linear-gradient" x1="538.96" y1="311.69" x2="225.04" y2="639.33" gradientUnits="userSpaceOnUse"><stop offset="0" stop-color="#ee5a37"/><stop offset="0.04" stop-color="#ee563c"/><stop offset="0.18" stop-color="#ec484e"/><stop offset="0.29" stop-color="#ec4354"/><stop offset="0.61" stop-color="#ce264a"/><stop offset="0.8" stop-color="#c5223c"/><stop offset="1" stop-color="#bf2033"/></linearGradient><linearGradient id="linear-gradient-2" x1="602.71" y1="372.77" x2="288.8" y2="700.42" xlink:href="#linear-gradient"/><linearGradient id="linear-gradient-3" x1="639.06" y1="407.59" x2="325.15" y2="735.24" xlink:href="#linear-gradient"/><linearGradient id="linear-gradient-4" x1="825.79" y1="343.31" x2="345.11" y2="761.2" xlink:href="#linear-gradient"/><linearGradient id="linear-gradient-5" x1="920.64" y1="452.4" x2="439.96" y2="870.3" xlink:href="#linear-gradient"/><linearGradient id="linear-gradient-6" x1="863.57" y1="386.76" x2="382.89" y2="804.66" xlink:href="#linear-gradient"/><linearGradient id="linear-gradient-7" x1="-2088.82" y1="21087.31" x2="-2287.89" y2="21211.3" gradientTransform="translate(-1924.11 21965.07) rotate(180)" gradientUnits="userSpaceOnUse"><stop offset="0" stop-color="#f05a37"/><stop offset="0.02" stop-color="#f0563b"/><stop offset="0.14" stop-color="#ee474d"/><stop offset="0.22" stop-color="#ee4253"/><stop offset="0.57" stop-color="#e43850"/><stop offset="1" stop-color="#d1264a"/></linearGradient><linearGradient id="linear-gradient-8" x1="-2638.07" y1="21637.03" x2="-2839.58" y2="21762.53" gradientTransform="translate(-1924.11 21965.07) rotate(180)" gradientUnits="userSpaceOnUse"><stop offset="0.32" stop-color="#ce264a"/><stop offset="0.64" stop-color="#c92442"/><stop offset="1" stop-color="#bf2033"/></linearGradient><linearGradient id="linear-gradient-9" x1="25.3" y1="540" x2="1054.7" y2="540" xlink:href="#linear-gradient"/></defs><title>191121_Web_Badges_Sugar_Free</title><circle class="cls-1" cx="540" cy="540" r="500"/><polygon class="cls-2" points="356.34 390.67 246 531.82 428.81 538.27 524.51 386.65 356.34 390.67"/><polygon class="cls-3" points="246 531.82 319.9 684.5 498.33 695 428.81 538.27 246 531.82"/><polygon class="cls-4" points="524.51 386.65 601.63 536.12 498.33 695 428.81 538.27 524.51 386.65"/><polygon class="cls-5" points="689.19 557 831.98 454.63 679.09 387.27 535.63 478.87 689.19 557"/><polygon class="cls-6" points="689.87 730.77 689.19 557 831.98 454.63 834 624.35 689.87 730.77"/><polygon class="cls-7" points="689.87 730.77 532.93 636.48 535.63 478.87 689.19 557 689.87 730.77"/><line class="cls-8" x1="192.7" y1="887.3" x2="335.79" y2="744.21"/><line class="cls-9" x1="742.13" y1="337.87" x2="887.3" y2="192.7"/><circle class="cls-10" cx="540" cy="540" r="500"/></svg>