<svg id="Layer_1" data-name="Layer 1" xmlns="http://www.w3.org/2000/svg" xmlns:xlink="http://www.w3.org/1999/xlink" viewBox="0 0 1080 1080"><defs><style>.cls-1{fill:#fff;}.cls-2{fill:none;stroke-miterlimit:10;stroke-width:29.4px;stroke:url(#linear-gradient);}.cls-3{fill:url(#linear-gradient-2);}</style><linearGradient id="linear-gradient" x1="25.3" y1="540" x2="1054.7" y2="540" gradientUnits="userSpaceOnUse"><stop offset="0" stop-color="#ee5a37"/><stop offset="0.04" stop-color="#ee563c"/><stop offset="0.18" stop-color="#ec484e"/><stop offset="0.29" stop-color="#ec4354"/><stop offset="0.61" stop-color="#ce264a"/><stop offset="0.8" stop-color="#c5223c"/><stop offset="1" stop-color="#bf2033"/></linearGradient><linearGradient id="linear-gradient-2" x1="2860.41" y1="948.83" x2="3203.55" y2="948.83" gradientTransform="matrix(-0.95, -0.31, -0.31, 0.95, 3706.5, 568.85)" gradientUnits="userSpaceOnUse"><stop offset="0" stop-color="#ee5a37"/><stop offset="0.04" stop-color="#ee563c"/><stop offset="0.2" stop-color="#ec484e"/><stop offset="0.31" stop-color="#ec4354"/><stop offset="0.63" stop-color="#ce264a"/><stop offset="0.77" stop-color="#c5223c"/><stop offset="0.9" stop-color="#bf2033"/></linearGradient></defs><title>191121_Web_Badges</title><circle class="cls-1" cx="540" cy="540" r="500"/><circle class="cls-2" cx="540" cy="540" r="500"/><path class="cls-3" d="M371.19,765.12c2.41-5.76,4.73-11,7.08-15.79,4.34-9.45,8.13-17.12,11.91-24.1,4.47-8.77,8.91-16.91,13.58-24.8,5-9,10.48-17.86,15.11-25.26a1090.83,1090.83,0,0,1,72.25-101.63c56.29-70.76,116.35-132.14,156.81-171.15,44.94-43.49,77.42-70.87,77.74-71.11a1.7,1.7,0,0,1,2.24,2.56c-.3.29-31.58,28.87-74.54,74-31.58,33-92.89,99.69-148.72,176A1065.3,1065.3,0,0,0,437.77,686.4c-5.81,10.15-10,17.88-13.68,25.15-4.19,7.78-8.17,15.77-12.18,24.48-3.39,6.94-6.72,14.4-10.48,23.56-2.91,6.58-5.61,13.46-8.75,22.37l-.61,1.7C676.73,866.81,687,593.32,718.71,427.43c14.47-75.68,35.11-119.74,35.11-119.74S161.26,439.44,371.19,765.12Z"/></svg>