<svg id="Layer_1" data-name="Layer 1" xmlns="http://www.w3.org/2000/svg" xmlns:xlink="http://www.w3.org/1999/xlink" viewBox="0 0 1080 1080"><defs><style>.cls-1{fill:#fff;}.cls-2{fill:none;stroke-miterlimit:10;stroke-width:29.4px;stroke:url(#linear-gradient);}.cls-3{fill:url(#linear-gradient-2);}.cls-4{fill:url(#linear-gradient-3);}</style><linearGradient id="linear-gradient" x1="25.3" y1="540" x2="1054.7" y2="540" gradientUnits="userSpaceOnUse"><stop offset="0" stop-color="#ee5a37"/><stop offset="0.04" stop-color="#ee563c"/><stop offset="0.18" stop-color="#ec484e"/><stop offset="0.29" stop-color="#ec4354"/><stop offset="0.61" stop-color="#ce264a"/><stop offset="0.8" stop-color="#c5223c"/><stop offset="1" stop-color="#bf2033"/></linearGradient><linearGradient id="linear-gradient-2" x1="296.78" y1="498.73" x2="528.93" y2="498.73" gradientUnits="userSpaceOnUse"><stop offset="0" stop-color="#ee5a37"/><stop offset="0.04" stop-color="#ee563c"/><stop offset="0.2" stop-color="#ec484e"/><stop offset="0.31" stop-color="#ec4354"/><stop offset="0.63" stop-color="#ce264a"/><stop offset="0.77" stop-color="#c5223c"/><stop offset="0.9" stop-color="#bf2033"/></linearGradient><linearGradient id="linear-gradient-3" x1="409.22" y1="598.72" x2="831.33" y2="598.72" xlink:href="#linear-gradient-2"/></defs><title>191121_Web_Badges</title><circle class="cls-1" cx="540" cy="540" r="500"/><circle class="cls-2" cx="540" cy="540" r="500"/><path class="cls-3" d="M465.9,682.17c-.34-4.21-.73-8.09-1.25-11.64-.8-7-1.63-12.72-2.6-18-1-6.58-2.2-12.75-3.54-18.8-1.35-6.88-3-13.69-4.43-19.42a739,739,0,0,0-25.17-80.52c-21.38-57.31-47.14-109.39-65-143-19.79-37.4-34.95-61.81-35.1-62a1.15,1.15,0,0,0-2,1.18c.13.25,14.26,25.19,32.45,63.19,13.4,27.83,38.85,83.6,58.76,144.42a720.05,720.05,0,0,1,21.52,80c1.61,7.75,2.7,13.61,3.53,19,1.06,5.88,1.95,11.85,2.7,18.29.73,5.18,1.31,10.68,1.81,17.36.49,4.84.78,9.83.94,16.22,0,.43,0,.81,0,1.23C248,683.54,298.76,505.46,313.14,392.11c6.55-51.71,2.52-84.38,2.52-84.38S669.2,516.68,465.9,682.17Z"/><path class="cls-4" d="M433,751.37c2.89-4.76,5.64-9.11,8.35-13,5.08-7.76,9.44-14,13.7-19.68,5.11-7.15,10.11-13.74,15.27-20.09C476,691.29,482,684.23,487,678.31a975.31,975.31,0,0,1,77.23-80.1c59-55,120.19-101.18,161.07-130.24,45.42-32.42,77.71-52.27,78-52.45a1.52,1.52,0,0,1,2.07.47,1.54,1.54,0,0,1-.43,2.09c-.31.21-31.69,21.29-75.59,55.37-32.24,24.91-95.18,75.66-154.58,135.64a950.57,950.57,0,0,0-72.61,81.64c-6.48,8.19-11.23,14.45-15.41,20.39-4.73,6.31-9.3,12.82-14,20-3.91,5.67-7.85,11.82-12.38,19.4-3.44,5.43-6.73,11.14-10.68,18.58-.27.5-.5.94-.77,1.42,240.18,111.12,285.51-128.86,335.48-271,22.8-64.86,46.86-101,46.86-101S291,436.14,433,751.37Z"/></svg>