<svg id="Layer_1" data-name="Layer 1" xmlns="http://www.w3.org/2000/svg" xmlns:xlink="http://www.w3.org/1999/xlink" viewBox="0 0 1080 1080"><defs><style>.cls-1{fill:#fff;}.cls-2,.cls-3{fill-rule:evenodd;}.cls-2{fill:url(#linear-gradient);}.cls-3{fill:url(#linear-gradient-2);}.cls-4{fill:url(#linear-gradient-3);}.cls-5{fill:none;stroke-miterlimit:10;stroke-width:29.37px;stroke:url(#linear-gradient-4);}</style><linearGradient id="linear-gradient" x1="760.52" y1="257.75" x2="110.52" y2="1099.5" gradientUnits="userSpaceOnUse"><stop offset="0" stop-color="#ee5a37"/><stop offset="0.03" stop-color="#ee563c"/><stop offset="0.14" stop-color="#ec484e"/><stop offset="0.22" stop-color="#ec4354"/><stop offset="0.55" stop-color="#ce264a"/><stop offset="0.7" stop-color="#c5223c"/><stop offset="0.86" stop-color="#bf2033"/></linearGradient><linearGradient id="linear-gradient-2" x1="601.08" y1="134.64" x2="-48.92" y2="976.38" xlink:href="#linear-gradient"/><linearGradient id="linear-gradient-3" x1="728.15" y1="539.29" x2="291.83" y2="1065.88" xlink:href="#linear-gradient"/><linearGradient id="linear-gradient-4" x1="25.76" y1="539.56" x2="1054.24" y2="539.56" gradientUnits="userSpaceOnUse"><stop offset="0" stop-color="#ee5a37"/><stop offset="0.04" stop-color="#ee563c"/><stop offset="0.18" stop-color="#ec484e"/><stop offset="0.29" stop-color="#ec4354"/><stop offset="0.61" stop-color="#ce264a"/><stop offset="0.8" stop-color="#c5223c"/><stop offset="1" stop-color="#bf2033"/></linearGradient></defs><title>191121_Web_Badges</title><circle class="cls-1" cx="540" cy="540.44" r="499.56"/><path class="cls-2" d="M585.24,434.49c-5.73-28-33-39.46-39.48-51.15-4.88-8.85-4.58-63.28-4.28-101.83H486.25c1.15,38.57,2.69,93.51-2,102.51C478,395.85,451,407.91,445.88,436s4.68,343,5.82,364.69S457.53,836,520,835.27s66.82-14.31,67.48-36S591,462.49,585.24,434.49Z"/><path class="cls-3" d="M541.61,261.57c0-4,0-7.46,0-10.33-.32-29-10.73-30.31-28.39-30.11s-28,1.77-27.72,30.73c0,2.72.09,6,.19,9.71Z"/><path class="cls-4" d="M723.84,567.72l4-5.05a7.94,7.94,0,0,0-4-12.52c-87.73-25.26-166.27-8.46-195.36-.3a8.63,8.63,0,0,0-4.51,13.52l1.57,2.07C552.28,599.61,616.62,686,617.16,708c1.31,53-.84,84.71-1.46,92.51-8,2.71-39.31,13.36-47,17.72-3.16,1.81-2.92,4.19-2.67,5.13,2.66,10,59.07,10.64,59.64,10.64s57-.63,59.63-10.64c.25-.94.49-3.32-2.67-5.13-7.64-4.36-38.91-15-46.95-17.72-.62-7.8-2.76-39.52-1.46-92.51C634.82,686,697.06,601.89,723.84,567.72Z"/><circle class="cls-5" cx="540" cy="539.56" r="499.56"/></svg>