<?xml version="1.0" encoding="UTF-8"?>
<svg width="24px" height="24px" viewBox="0 0 24 24" version="1.1" xmlns="http://www.w3.org/2000/svg" xmlns:xlink="http://www.w3.org/1999/xlink">
    <!-- Generator: Sketch 63.1 (92452) - https://sketch.com -->
    <title>ic_article</title>
    <desc>Created with Sketch.</desc>
    <g id="ic_article" stroke="none" stroke-width="1" fill="none" fill-rule="evenodd">
        <rect id="backing" fill-opacity="0" fill="#E8E8E8" x="0" y="0" width="24" height="24"></rect>
        <path d="M9,10 L10,10 C10.5522847,10 11,9.55228475 11,9 C11,8.44771525 10.5522847,8 10,8 L9,8 C8.44771525,8 8,8.44771525 8,9 C8,9.55228475 8.44771525,10 9,10 Z M9,12 C8.44771525,12 8,12.4477153 8,13 C8,13.5522847 8.44771525,14 9,14 L15,14 C15.5522847,14 16,13.5522847 16,13 C16,12.4477153 15.5522847,12 15,12 L9,12 Z M20,8.94 C19.9895837,8.8481349 19.9694716,8.75763058 19.94,8.67 L19.94,8.58 C19.8919189,8.47717975 19.8277838,8.38266483 19.75,8.3 L19.75,8.3 L13.75,2.3 L13.75,2.3 C13.6673352,2.22221621 13.5728202,2.15808108 13.47,2.11 C13.4401498,2.10576018 13.4098502,2.10576018 13.38,2.11 C13.2784148,2.05174135 13.1662233,2.0143442 13.05,2 L7,2 C5.34314575,2 4,3.34314575 4,5 L4,19 C4,20.6568542 5.34314575,22 7,22 L17,22 C18.6568542,22 20,20.6568542 20,19 L20,9 C20,9 20,9 20,8.94 Z M14,5.41 L16.59,8 L15,8 C14.4477153,8 14,7.55228475 14,7 L14,5.41 Z M18,19 C18,19.5522847 17.5522847,20 17,20 L7,20 C6.44771525,20 6,19.5522847 6,19 L6,5 C6,4.44771525 6.44771525,4 7,4 L12,4 L12,7 C12,8.65685425 13.3431458,10 15,10 L18,10 L18,19 Z M15,16 L9,16 C8.44771525,16 8,16.4477153 8,17 C8,17.5522847 8.44771525,18 9,18 L15,18 C15.5522847,18 16,17.5522847 16,17 C16,16.4477153 15.5522847,16 15,16 Z" id="Shape" fill="#1C1C1C"></path>
    </g>
</svg>