<?xml version="1.0" encoding="UTF-8"?>
<svg width="24px" height="24px" viewBox="0 0 24 24" version="1.1" xmlns="http://www.w3.org/2000/svg" xmlns:xlink="http://www.w3.org/1999/xlink">
    <!-- Generator: Sketch 63.1 (92452) - https://sketch.com -->
    <title>ic_star-stroke</title>
    <desc>Created with Sketch.</desc>
    <g id="ic_star-stroke" stroke="none" stroke-width="1" fill="none" fill-rule="evenodd">
        <rect id="backing" fill-opacity="0" fill="#E8E8E8" x="0" y="0" width="24" height="24"></rect>
        <path d="M21.9664179,9.18715803 C21.8375696,8.81588738 21.5009567,8.55498907 21.1075895,8.52150658 L15.4253411,7.69689359 L12.878815,2.56044882 C12.7119562,2.21769761 12.3628414,2 11.980041,2 C11.5972407,2 11.2481259,2.21769761 11.0812671,2.56044882 L8.53474102,7.6869585 L2.85249256,8.52150658 C2.47542987,8.5748251 2.16167909,8.83686827 2.04359603,9.19709313 C1.93562772,9.54870986 2.03166853,9.93090041 2.29325546,10.1906028 L6.41762912,14.1646413 L5.41899143,19.8077759 C5.34619777,20.1880886 5.50209548,20.5758315 5.8184465,20.8012856 C6.12645622,21.0203496 6.53250272,21.0472804 6.86701608,20.8708312 L11.980041,18.2181605 L17.0730933,20.8807663 C17.2132498,20.959429 17.371546,21.0005116 17.5324666,21 C17.7440045,21.000737 17.9503174,20.9346384 18.1216628,20.8112207 C18.4380139,20.5857666 18.5939116,20.1980237 18.5211179,19.817711 L17.5224802,14.1745764 L21.6468539,10.2005379 C21.9411514,9.95248817 22.0655503,9.55800288 21.9664179,9.18715803 Z M15.8247962,13.1611965 C15.5870017,13.3900188 15.478548,13.7211502 15.5351912,14.0454201 L16.2542104,18.2082254 L12.4993326,16.2212062 C12.2059275,16.0657768 11.8540184,16.0657768 11.5606132,16.2212062 L7.8057355,18.2082254 L8.52475464,14.0454201 C8.58139785,13.7211502 8.4729442,13.3900188 8.23514971,13.1611965 L5.23923664,10.1806677 L9.44350132,9.57462679 C9.77200015,9.52916837 10.0563809,9.32442328 10.202466,9.02819649 L11.980041,5.24292481 L13.8574799,9.03813159 C14.0035649,9.33435838 14.2879457,9.53910346 14.6164446,9.58456188 L18.8207092,10.1906028 L15.8247962,13.1611965 Z" id="Shape" fill="#1C1C1C"></path>
    </g>
</svg>