<?xml version="1.0" encoding="UTF-8"?>
<svg width="24px" height="24px" viewBox="0 0 24 24" version="1.1" xmlns="http://www.w3.org/2000/svg" xmlns:xlink="http://www.w3.org/1999/xlink">
    <!-- Generator: Sketch 64 (93537) - https://sketch.com -->
    <title>icon_thumbs-up</title>
    <desc>Created with Sketch.</desc>
    <g id="icon_thumbs-up" stroke="none" stroke-width="1" fill="none" fill-rule="evenodd">
        <path d="M21.301655,10.0800529 C20.7327759,9.39712373 19.8903321,9.00157709 19.0014578,9.00005773 L14.4410668,9.00005773 L15.0011148,7.57006408 C15.4739789,6.2991298 15.2927588,4.87706157 14.5162592,3.76531018 C13.7397595,2.6535588 12.466925,1.99378808 11.1107812,2.00004409 C10.7178481,2.0009086 10.3618052,2.23172875 10.2007032,2.5900862 L7.35045878,9.00005773 L5.00025726,9.00005773 C3.34326093,9.00005773 2,10.3431975 2,12.0000441 L2,19.0000133 C2,20.6568602 3.34326093,22 5.00025726,22 L17.7313489,22 C19.1796728,21.9995173 20.4209036,20.9645504 20.6816019,19.5400109 L21.9517108,12.540042 C22.1107464,11.6642219 21.8725997,10.7630094 21.301655,10.0800529 L21.301655,10.0800529 Z M7.00042877,20.0000089 L5.00025726,20.0000089 C4.44792515,20.0000089 4.00017151,19.5522956 4.00017151,19.0000133 L4.00017151,12.0000489 C4.00017151,11.4477621 4.44792515,11.0000489 5.00025726,11.0000489 L7.00042877,11.0000489 L7.00042877,20.0000089 Z M20.0015436,12.1800436 L18.7314346,19.1800125 C18.6434598,19.6611029 18.2203946,20.0079851 17.7313489,20.0001437 L9.00060027,20.0001437 L9.00060027,10.2100524 L11.7208335,4.09007954 C12.286934,4.2551031 12.7581563,4.64944347 13.0203425,5.177568 C13.2825287,5.70569254 13.3117589,6.31941928 13.1009519,6.87006719 L12.5709064,8.30006084 C12.3416648,8.91355118 12.4273382,9.60039875 12.8002592,10.1387923 C13.1731802,10.6771859 13.7860945,10.9989033 14.4410668,11.0000489 L19.0014578,11.0000489 C19.2989155,10.9995658 19.581151,11.1315082 19.7715238,11.3600473 C19.966584,11.5854417 20.0509208,11.8860936 20.0015436,12.1800436 Z" id="Shape" fill="#1C1C1C"></path>
    </g>
</svg>