<svg xmlns="http://www.w3.org/2000/svg" width="32" height="32" viewBox="0 0 32 32">
    <path fill="#1C1C1C" fill-rule="evenodd" d="M17.879 15.999l8.394-8.382c.522-.522.522-1.37 0-1.892-.523-.522-1.37-.522-1.892 0L16 14.12 7.62 5.725c-.523-.522-1.37-.522-1.893 0-.522.523-.522 1.37 0 1.892L14.121 16 5.727 24.38c-.252.25-.394.591-.394.946 0 .356.142.696.394.947.25.252.591.394.946.394.356 0 .696-.142.946-.394L16 17.878l8.38 8.395c.25.252.591.394.947.394.355 0 .695-.142.946-.394.252-.25.394-.591.394-.947 0-.355-.142-.695-.394-.946L17.879 16z"/>
</svg>
