<svg xmlns="http://www.w3.org/2000/svg" width="24" height="24" viewBox="0 0 24 24">
    <path fill="#B4244A" fill-rule="evenodd" d="M7 10c-.552 0-1 .448-1 1s.448 1 1 1 1-.448 1-1-.448-1-1-1zm12-4h-1V3c0-.552-.448-1-1-1H7c-.552 0-1 .448-1 1v3H5C3.343 6 2 7.343 2 9v6c0 1.657 1.343 3 3 3h1v3c0 .552.448 1 1 1h10c.552 0 1-.448 1-1v-3h1c1.657 0 3-1.343 3-3V9c0-1.657-1.343-3-3-3zM8 4h8v2H8V4zm8 16H8v-4h8v4zm4-5c0 .552-.448 1-1 1h-1v-1c0-.552-.448-1-1-1H7c-.552 0-1 .448-1 1v1H5c-.552 0-1-.448-1-1V9c0-.552.448-1 1-1h14c.552 0 1 .448 1 1v6z"/>
</svg>
