<svg width="73" height="73" viewBox="0 0 73 73" fill="none" xmlns="http://www.w3.org/2000/svg">
<path d="M36.5 0C16.352 0 0 16.352 0 36.5C0 56.648 16.352 73 36.5 73C56.648 73 73 56.648 73 36.5C73 16.352 56.648 0 36.5 0ZM36.5 10.95C42.559 10.95 47.45 15.841 47.45 21.9C47.45 27.959 42.559 32.85 36.5 32.85C30.441 32.85 25.55 27.959 25.55 21.9C25.55 15.841 30.441 10.95 36.5 10.95ZM36.5 62.78C27.375 62.78 19.3085 58.108 14.6 51.027C14.7095 43.7635 29.2 39.785 36.5 39.785C43.7635 39.785 58.2905 43.7635 58.4 51.027C53.6915 58.108 45.625 62.78 36.5 62.78Z" fill="#F5F5F5"/>
</svg>
