<svg width="34" height="34" viewBox="0 0 34 34" fill="none" xmlns="http://www.w3.org/2000/svg">
<path d="M17 34C26.3888 34 34 26.3888 34 17C34 7.61116 26.3888 0 17 0C7.61116 0 0 7.61116 0 17C0 26.3888 7.61116 34 17 34Z" fill="#E74252"/>
<path d="M21.0065 20.1158L13.8838 12.9931C13.6378 12.7471 13.2391 12.747 12.9932 12.9928C12.7474 13.2386 12.7476 13.6374 12.9936 13.8834L20.1163 21.0061C20.3623 21.2521 20.761 21.2523 21.0069 21.0064C21.2527 20.7606 21.2525 20.3619 21.0065 20.1158Z" fill="white"/>
<path d="M13.915 21.0386L21.0377 13.9159C21.2837 13.6699 21.2839 13.2712 21.038 13.0253C20.7922 12.7795 20.3935 12.7797 20.1474 13.0257L13.0247 20.1484C12.7787 20.3944 12.7786 20.7931 13.0244 21.039C13.2702 21.2848 13.669 21.2847 13.915 21.0386Z" fill="white"/>
</svg>
