<svg width="662" height="457" viewBox="0 0 662 457" fill="none" xmlns="http://www.w3.org/2000/svg">
<path d="M609.54 336.38C611.21 338.551 613.006 340.621 614.92 342.58C629.04 355.58 643.49 359.05 649.92 359.58C651.321 359.744 652.741 359.589 654.073 359.124C655.405 358.66 656.615 357.9 657.61 356.9C658.543 355.972 659.272 354.859 659.751 353.633C660.23 352.407 660.447 351.095 660.39 349.78V232.56C660.39 232.56 663.18 195.46 637.09 160.17C611 124.88 578.16 111.44 554.09 107.09C530.02 102.74 498.78 104.64 477.09 115.87C468.56 120.23 463.9 122.59 460.33 124.7C458.33 126.06 456.33 127.49 454.38 128.95L453.52 127.95C452.65 126.88 451.46 125.65 449.42 123.56C440.344 114.555 428.867 108.354 416.36 105.7C409.95 104.37 407.08 108.24 407.08 108.24C407.08 108.24 404.64 109.84 404.64 115.71C404.64 118.24 404.64 162.57 404.57 211.81C404.57 225.27 404.57 239.12 404.57 252.61C404.57 304.02 404.5 350.24 404.5 350.24C404.5 350.24 404.58 355.13 408.08 357.59C411.2 359.77 412.88 359.71 415.59 359.36C418.79 358.94 433.59 357.21 449.51 342.52C451.587 340.593 453.504 338.499 455.24 336.26C463.728 325.09 468.424 311.498 468.64 297.47V232.22C468.639 230.938 468.702 229.656 468.83 228.38C469.57 219.84 473.24 198.89 491.25 183.79C514.37 164.4 540.36 169.12 540.36 169.12C540.36 169.12 564.89 169.88 584.36 195.06C594.5 206.96 596.57 226.94 596.57 232.22V298.65C596.57 298.65 595.27 317.74 609.54 336.38Z" fill="white"/>
<path d="M239.69 353.75C240.89 354.12 242.11 354.45 243.33 354.75C243.86 354.87 244.38 355.01 244.92 355.12C245.357 355.18 245.798 355.21 246.24 355.21C247.467 355.211 248.682 354.971 249.816 354.502C250.95 354.033 251.98 353.345 252.847 352.477C253.715 351.61 254.403 350.58 254.872 349.446C255.341 348.312 255.581 347.097 255.58 345.87V238.71C255.58 238.48 255.58 238.25 255.63 238.02C255.77 235.9 255.84 233.77 255.88 231.63C255.88 231.06 255.88 230.49 255.88 229.92C255.867 211.778 251.987 193.848 244.5 177.323C237.012 160.799 226.089 146.06 212.457 134.089C198.826 122.119 182.8 113.19 165.447 107.9C148.093 102.61 129.812 101.079 111.821 103.41C93.8294 105.74 76.5414 111.879 61.1089 121.416C45.6764 130.953 32.4538 143.669 22.3224 158.718C12.1909 173.767 5.38333 190.803 2.35327 208.69C-0.676796 226.577 0.140262 244.904 4.75 262.45V262.45C9.76824 281.464 19.1097 299.062 32.0462 313.873C44.9828 328.684 61.1649 340.308 79.3314 347.837C97.4978 355.367 117.158 358.6 136.779 357.284C156.4 355.968 175.452 350.138 192.45 340.25C194.543 339.03 196.6 337.75 198.62 336.41C198.97 336.14 199.36 335.94 199.74 335.68L199.35 335.88C199.65 335.69 204.22 332.47 205.62 331.44C206.62 332.55 208.62 334.72 209.09 335.27L209.22 335.39L211.13 337.39C219.242 344.998 229.023 350.601 239.69 353.75V353.75ZM192.46 229.92C192.456 242.632 188.684 255.057 181.62 265.626C174.556 276.194 164.517 284.432 152.773 289.296C141.028 294.161 128.106 295.435 115.637 292.957C103.169 290.479 91.7157 284.36 82.7242 275.374C73.7327 266.388 67.607 254.938 65.1212 242.472C62.6354 230.005 63.9011 217.082 68.7585 205.334C73.6158 193.587 81.8467 183.543 92.4108 176.473C102.975 169.402 115.398 165.622 128.11 165.61H128.22C145.265 165.626 161.606 172.409 173.652 184.468C185.698 196.527 192.463 212.875 192.46 229.92V229.92Z" fill="white"/>
<path d="M384 105.24C382.173 103.717 379.913 102.808 377.54 102.64H347.66C347.83 102.19 353.66 87.86 366.38 77.85C374.914 71.2355 384.858 66.6774 395.44 64.53C398.34 63.86 415.51 60.46 427.94 46.78C440.37 33.1 442.88 22.38 444.78 11.15C444.88 8.3 444.39 5.38001 441.78 2.88001C440.052 1.32327 437.815 0.451886 435.49 0.43H406.68C406.68 0.43 365.31 -1.89999 327.27 28.13C304.68 45.46 291.7 67.43 283.44 95.4C282.722 97.4599 281.465 99.2899 279.8 100.7C278.161 101.957 276.155 102.641 274.09 102.65H244.17C242.821 102.67 241.49 102.973 240.265 103.539C239.04 104.106 237.948 104.924 237.06 105.94C234.16 109.36 235.06 113.94 235.06 113.94C235.06 113.94 236.06 127.41 246.23 141.14C252.964 150.47 262.116 157.786 272.7 162.3C276.36 164.09 277.13 165.47 277.34 165.79C278.388 167.386 278.973 169.241 279.03 171.15C279.03 177.15 279.03 207.15 279.03 239.94V246.33C279.03 263.23 279.03 280.79 279.03 296.48V302C279.03 311.7 279.03 320.52 279.03 327.76V348C279.03 348 279.2 352.91 282.5 355.28C283.67 356.236 285.056 356.893 286.537 357.193C288.018 357.492 289.55 357.426 291 357C293.65 356.42 313.33 353.85 329.14 334.06C337.697 322.949 342.405 309.354 342.55 295.33V254.68V248.47V175.87C342.865 173.565 343.942 171.432 345.61 169.81C347.325 168.235 349.571 167.363 351.9 167.37H377.9C380.342 167.227 382.636 166.153 384.31 164.37C385.184 163.401 385.857 162.269 386.289 161.038C386.722 159.807 386.906 158.502 386.83 157.2V112C386.85 111.92 386.84 107.75 384 105.24Z" fill="white"/>
<path d="M42 447.88C41.5237 446.866 41.3171 445.747 41.4 444.63V419.49H32.83V424.7C32.0197 422.839 30.5783 421.323 28.76 420.42C26.4714 419.22 23.9131 418.628 21.33 418.7C18.1269 418.668 14.9773 419.523 12.23 421.17C9.49321 422.805 7.24775 425.147 5.72998 427.95C4.15436 430.894 3.32996 434.181 3.32996 437.52C3.32996 440.859 4.15436 444.146 5.72998 447.09C7.25031 449.894 9.49498 452.239 12.23 453.88C14.9782 455.524 18.1278 456.376 21.33 456.34C23.9725 456.441 26.6012 455.913 29 454.8C30.9129 453.87 32.5502 452.456 33.75 450.7C33.9157 451.585 34.26 452.428 34.7621 453.176C35.2641 453.924 35.9133 454.561 36.67 455.05C38.2022 455.878 39.93 456.275 41.67 456.2C43.1003 456.266 44.5305 456.069 45.89 455.62V448.7C45.297 448.786 44.6991 448.832 44.1 448.84C43.6958 448.886 43.2867 448.821 42.9168 448.651C42.5468 448.482 42.2299 448.216 42 447.88ZM32 443.09C31.0516 444.76 29.6695 446.142 28 447.09C26.302 448.049 24.3797 448.539 22.43 448.51C20.5279 448.538 18.6541 448.047 17.01 447.09C15.3925 446.134 14.0706 444.75 13.19 443.09C12.2708 441.365 11.79 439.44 11.79 437.485C11.79 435.53 12.2708 433.605 13.19 431.88C14.0668 430.217 15.3896 428.832 17.01 427.88C18.6513 426.915 20.5264 426.421 22.43 426.45C24.3811 426.42 26.3044 426.914 28 427.88C29.6726 428.824 31.0556 430.207 32 431.88C32.9572 433.593 33.4598 435.523 33.4598 437.485C33.4598 439.447 32.9572 441.377 32 443.09V443.09Z" fill="white"/>
<path d="M69.34 434.27L66.13 433.13C64.5213 432.656 62.9636 432.022 61.48 431.24C61.0924 431.011 60.7748 430.68 60.5615 430.284C60.3482 429.887 60.2475 429.44 60.27 428.99C60.2616 428.536 60.3648 428.087 60.5705 427.683C60.7763 427.278 61.0783 426.93 61.45 426.67C62.3804 426.025 63.4994 425.708 64.63 425.77C68.0967 425.77 70.7133 426.82 72.48 428.92L77.27 423.85C74.41 420.23 70.2433 418.42 64.77 418.42C61.5273 418.322 58.3496 419.343 55.77 421.31C54.5709 422.235 53.611 423.435 52.9707 424.808C52.3304 426.18 52.0284 427.687 52.09 429.2C51.9875 431.489 52.7966 433.726 54.34 435.42C56.2093 437.217 58.4678 438.558 60.94 439.34L63.94 440.34C65.7736 440.91 67.5537 441.64 69.26 442.52C69.7298 442.755 70.1237 443.119 70.3961 443.568C70.6686 444.017 70.8086 444.535 70.8 445.06C70.7918 445.614 70.6469 446.158 70.3783 446.643C70.1097 447.128 69.7255 447.539 69.26 447.84C67.7875 448.718 66.0788 449.116 64.37 448.98C62.3682 449.026 60.3851 448.587 58.59 447.7C57.0815 446.983 55.7958 445.87 54.87 444.48L49.37 449.13C50.6078 451.459 52.5651 453.325 54.95 454.45C57.8408 455.844 61.0218 456.529 64.23 456.45C69.13 456.45 72.82 455.38 75.3 453.24C76.4966 452.233 77.4507 450.969 78.0913 449.543C78.7319 448.116 79.0425 446.563 79 445C79.0822 442.65 78.2507 440.36 76.68 438.61C74.6148 436.598 72.098 435.11 69.34 434.27Z" fill="white"/>
<path d="M89.69 415.28C90.3534 415.288 91.0114 415.162 91.6249 414.909C92.2383 414.656 92.7945 414.283 93.26 413.81C93.7356 413.338 94.1131 412.776 94.3706 412.157C94.6282 411.539 94.7608 410.875 94.7608 410.205C94.7608 409.535 94.6282 408.871 94.3706 408.252C94.1131 407.634 93.7356 407.072 93.26 406.6C92.7945 406.127 92.2383 405.754 91.6249 405.501C91.0114 405.248 90.3534 405.122 89.69 405.13C89.0155 405.117 88.3453 405.24 87.7197 405.493C87.0941 405.745 86.5262 406.122 86.05 406.6C85.5744 407.072 85.1969 407.634 84.9394 408.252C84.6818 408.871 84.5492 409.535 84.5492 410.205C84.5492 410.875 84.6818 411.539 84.9394 412.157C85.1969 412.776 85.5744 413.338 86.05 413.81C86.5262 414.288 87.0941 414.665 87.7197 414.917C88.3453 415.17 89.0155 415.293 89.69 415.28V415.28Z" fill="white"/>
<path d="M94.51 447.7C94.0875 446.784 93.9051 445.776 93.98 444.77V419.49H85.41V447.06C85.41 453.147 88.17 456.193 93.69 456.2C95.144 456.285 96.6008 456.088 97.98 455.62V448.41C97.4882 448.522 96.9843 448.572 96.48 448.56C96.105 448.603 95.7252 448.546 95.3792 448.395C95.0332 448.244 94.7333 448.004 94.51 447.7Z" fill="white"/>
<path d="M140.65 447.88C140.165 446.869 139.954 445.748 140.04 444.63V419.49H131.47V424.7C130.663 422.836 129.221 421.319 127.4 420.42C125.121 419.224 122.573 418.632 120 418.7C116.797 418.668 113.647 419.523 110.9 421.17C108.163 422.805 105.918 425.147 104.4 427.95C102.83 430.896 102.009 434.182 102.009 437.52C102.009 440.858 102.83 444.144 104.4 447.09C105.92 449.894 108.165 452.239 110.9 453.88C113.648 455.524 116.798 456.376 120 456.34C122.622 456.431 125.229 455.904 127.61 454.8C129.523 453.87 131.16 452.457 132.36 450.7C132.525 451.587 132.87 452.43 133.374 453.179C133.878 453.927 134.53 454.564 135.29 455.05C136.821 455.88 138.55 456.277 140.29 456.2C141.72 456.266 143.151 456.069 144.51 455.62V448.7C143.917 448.786 143.319 448.833 142.72 448.84C142.32 448.883 141.916 448.817 141.552 448.648C141.187 448.479 140.875 448.213 140.65 447.88V447.88ZM130.65 443.09C129.7 444.758 128.318 446.14 126.65 447.09C124.951 448.046 123.029 448.535 121.08 448.51C119.175 448.537 117.298 448.046 115.65 447.09C114.035 446.131 112.714 444.748 111.83 443.09C110.911 441.365 110.43 439.44 110.43 437.485C110.43 435.53 110.911 433.605 111.83 431.88C112.71 430.22 114.032 428.835 115.65 427.88C117.295 426.916 119.173 426.422 121.08 426.45C123.031 426.424 124.953 426.918 126.65 427.88C128.321 428.826 129.704 430.209 130.65 431.88C131.607 433.593 132.11 435.523 132.11 437.485C132.11 439.447 131.607 441.377 130.65 443.09Z" fill="white"/>
<path d="M184 447.48C183.6 446.561 183.428 445.559 183.5 444.56V433.2C183.5 428.727 182.32 425.203 179.96 422.63C177.6 420.057 174.28 418.773 170 418.78C167.685 418.729 165.397 419.28 163.36 420.38C161.574 421.334 160.127 422.819 159.22 424.63V419.49H150.72V455.49H159.22V434.77C159.179 433.667 159.361 432.568 159.754 431.537C160.147 430.506 160.745 429.565 161.51 428.77C162.272 428 163.185 427.396 164.192 426.996C165.199 426.597 166.277 426.411 167.36 426.45C168.387 426.39 169.416 426.55 170.376 426.919C171.337 427.288 172.207 427.857 172.93 428.59C174.331 430.21 175.048 432.311 174.93 434.45V446.45C174.93 452.743 177.74 455.887 183.36 455.88C184.611 455.909 185.859 455.764 187.07 455.45V448.2C186.674 448.294 186.267 448.341 185.86 448.34C185.501 448.378 185.139 448.318 184.811 448.166C184.484 448.015 184.204 447.778 184 447.48V447.48Z" fill="white"/>
<path d="M224 405.13C222.523 405.418 221.145 406.083 220 407.06C218.65 408.12 217.614 409.527 217 411.13C216.308 413.249 215.997 415.473 216.08 417.7V419.49H210.22V427.27H216.08V455.48H224.65V427.27H231.43V419.49H224.65V417.06C224.519 415.665 224.927 414.273 225.79 413.17C226.274 412.741 226.84 412.415 227.454 412.213C228.067 412.01 228.716 411.934 229.36 411.99C230.465 411.938 231.572 412.059 232.64 412.35V405C231.414 404.797 230.173 404.703 228.93 404.72C227.277 404.701 225.627 404.839 224 405.13V405.13Z" fill="white"/>
<path d="M264.52 421C261.511 419.31 258.111 418.437 254.66 418.47C251.19 418.431 247.768 419.292 244.73 420.97C241.773 422.609 239.309 425.01 237.593 427.922C235.878 430.835 234.973 434.154 234.973 437.535C234.973 440.916 235.878 444.235 237.593 447.148C239.309 450.06 241.773 452.461 244.73 454.1C247.768 455.778 251.19 456.639 254.66 456.6C258.111 456.633 261.511 455.76 264.52 454.07C267.456 452.43 269.916 450.056 271.66 447.18C273.388 444.26 274.3 440.928 274.3 437.535C274.3 434.142 273.388 430.81 271.66 427.89C269.916 425.014 267.456 422.64 264.52 421ZM264.34 443.25C262.825 445.802 260.365 447.654 257.495 448.407C254.624 449.159 251.572 448.751 249 447.27C247.332 446.289 245.952 444.885 245 443.2C244.042 441.447 243.541 439.482 243.541 437.485C243.541 435.488 244.042 433.523 245 431.77C246.5 429.207 248.952 427.341 251.821 426.579C254.691 425.816 257.746 426.219 260.32 427.7C261.992 428.677 263.373 430.082 264.32 431.77C265.278 433.523 265.779 435.488 265.779 437.485C265.779 439.482 265.278 441.447 264.32 443.2L264.34 443.25Z" fill="white"/>
<path d="M309.36 421C306.354 419.31 302.958 418.437 299.51 418.47C296.04 418.431 292.618 419.292 289.58 420.97C286.623 422.609 284.159 425.01 282.443 427.922C280.728 430.835 279.823 434.154 279.823 437.535C279.823 440.916 280.728 444.235 282.443 447.148C284.159 450.06 286.623 452.461 289.58 454.1C292.618 455.778 296.04 456.639 299.51 456.6C302.958 456.633 306.354 455.76 309.36 454.07C312.301 452.436 314.762 450.061 316.5 447.18C318.234 444.262 319.15 440.93 319.15 437.535C319.15 434.14 318.234 430.808 316.5 427.89C314.762 425.009 312.301 422.634 309.36 421V421ZM309.18 443.25C308.233 444.939 306.852 446.344 305.18 447.32C303.91 448.072 302.503 448.563 301.042 448.766C299.58 448.968 298.093 448.877 296.666 448.498C295.24 448.119 293.904 447.46 292.735 446.559C291.567 445.658 290.589 444.533 289.86 443.25C288.902 441.497 288.401 439.532 288.401 437.535C288.401 435.538 288.902 433.573 289.86 431.82C291.36 429.257 293.812 427.391 296.681 426.629C299.551 425.866 302.606 426.269 305.18 427.75C306.852 428.726 308.233 430.131 309.18 431.82C310.145 433.57 310.651 435.536 310.651 437.535C310.651 439.534 310.145 441.5 309.18 443.25V443.25Z" fill="white"/>
<path d="M363.39 447.88C362.905 446.869 362.694 445.748 362.78 444.63V405.71H354.21V424.71C353.403 422.846 351.961 421.329 350.14 420.43C347.852 419.229 345.293 418.636 342.71 418.71C339.507 418.678 336.357 419.533 333.61 421.18C330.873 422.815 328.628 425.157 327.11 427.96C325.54 430.906 324.719 434.192 324.719 437.53C324.719 440.868 325.54 444.154 327.11 447.1C328.63 449.904 330.875 452.249 333.61 453.89C336.358 455.534 339.508 456.386 342.71 456.35C345.332 456.441 347.939 455.914 350.32 454.81C352.235 453.882 353.873 452.469 355.07 450.71C355.235 451.597 355.58 452.44 356.084 453.189C356.588 453.937 357.24 454.574 358 455.06C359.531 455.89 361.26 456.287 363 456.21C364.43 456.277 365.861 456.08 367.22 455.63V448.7C366.627 448.786 366.029 448.833 365.43 448.84C365.035 448.878 364.637 448.809 364.278 448.64C363.919 448.471 363.613 448.208 363.39 447.88V447.88ZM353.39 443.09C352.44 444.758 351.058 446.14 349.39 447.09C347.691 448.046 345.769 448.535 343.82 448.51C341.915 448.538 340.038 448.047 338.39 447.09C336.775 446.131 335.454 444.748 334.57 443.09C333.651 441.365 333.17 439.44 333.17 437.485C333.17 435.53 333.651 433.605 334.57 431.88C335.45 430.22 336.772 428.835 338.39 427.88C340.035 426.915 341.913 426.421 343.82 426.45C345.771 426.424 347.693 426.918 349.39 427.88C351.061 428.826 352.444 430.209 353.39 431.88C354.347 433.593 354.85 435.523 354.85 437.485C354.85 439.447 354.347 441.377 353.39 443.09Z" fill="white"/>
<path d="M426.12 447.48C425.72 446.561 425.548 445.559 425.62 444.56V433.2C425.62 428.727 424.443 425.203 422.09 422.63C419.737 420.057 416.44 418.773 412.2 418.78C409.885 418.726 407.596 419.277 405.56 420.38C403.769 421.331 402.318 422.817 401.41 424.63V419.49H392.92V455.49H401.41V434.77C401.369 433.667 401.551 432.568 401.944 431.537C402.337 430.506 402.935 429.565 403.7 428.77C404.463 427.999 405.378 427.395 406.387 426.995C407.395 426.596 408.476 426.41 409.56 426.45C410.587 426.391 411.615 426.551 412.575 426.92C413.536 427.289 414.407 427.859 415.13 428.59C416.531 430.21 417.248 432.311 417.13 434.45V446.45C417.13 452.743 419.94 455.887 425.56 455.88C426.814 455.909 428.066 455.764 429.28 455.45V448.2C428.88 448.293 428.471 448.34 428.06 448.34C427.689 448.393 427.31 448.341 426.967 448.189C426.623 448.036 426.33 447.791 426.12 447.48Z" fill="white"/>
<path d="M461.83 420.92C459.018 419.274 455.808 418.433 452.55 418.49C449.175 418.443 445.844 419.255 442.87 420.85C440.028 422.381 437.685 424.696 436.12 427.52C434.452 430.584 433.614 434.032 433.69 437.52V437.8C433.615 441.218 434.443 444.595 436.09 447.59C437.645 450.362 439.977 452.619 442.8 454.08C445.891 455.662 449.328 456.449 452.8 456.37C455.571 456.393 458.321 455.897 460.91 454.91C463.589 453.789 465.981 452.08 467.91 449.91L462.77 444.91C461.518 446.214 460.041 447.281 458.41 448.06C456.717 448.767 454.894 449.108 453.06 449.06C450.256 449.195 447.504 448.278 445.34 446.49C444.368 445.63 443.586 444.577 443.045 443.397C442.504 442.218 442.216 440.938 442.2 439.64H470.2C470.29 438.73 470.34 437.73 470.34 436.64C470.374 433.457 469.615 430.316 468.13 427.5C466.678 424.767 464.497 422.49 461.83 420.92V420.92ZM442.41 433.63C442.515 432.526 442.856 431.457 443.41 430.496C443.964 429.536 444.718 428.705 445.62 428.06C447.602 426.53 450.047 425.722 452.55 425.77C454.124 425.761 455.677 426.128 457.08 426.84C458.413 427.494 459.556 428.479 460.4 429.7C461.2 430.854 461.626 432.226 461.62 433.63H442.41Z" fill="white"/>
<path d="M487.9 405.71H479.33V419.49H474.83V427.27H479.33V444.27C479.33 449.083 480.447 452.32 482.68 453.98C485.093 455.703 488.007 456.582 490.97 456.48C492.458 456.509 493.945 456.365 495.4 456.05V448.41C494.412 448.604 493.407 448.702 492.4 448.7C491.774 448.757 491.143 448.678 490.551 448.467C489.959 448.256 489.419 447.92 488.97 447.48C488.25 446.67 487.9 445.29 487.9 443.34V427.27H495.82V419.49H487.9V405.71Z" fill="white"/>
<path d="M535.6 441.91L528.32 419.49H521.82L514.53 441.91L507.03 419.49H498.97L510.96 455.48H517.68L525.1 432.7L532.53 455.48H539.17L551.24 419.49H543.1L535.6 441.91Z" fill="white"/>
<path d="M582.38 421C579.371 419.31 575.971 418.437 572.52 418.47C569.05 418.431 565.628 419.292 562.59 420.97C559.633 422.609 557.169 425.01 555.453 427.922C553.738 430.835 552.833 434.154 552.833 437.535C552.833 440.916 553.738 444.235 555.453 447.148C557.169 450.06 559.633 452.461 562.59 454.1C565.628 455.778 569.05 456.639 572.52 456.6C575.971 456.633 579.371 455.76 582.38 454.07C585.321 452.436 587.782 450.061 589.52 447.18C591.248 444.26 592.16 440.928 592.16 437.535C592.16 434.142 591.248 430.81 589.52 427.89C587.782 425.009 585.321 422.634 582.38 421V421ZM582.2 443.25C580.693 445.816 578.234 447.683 575.357 448.445C572.481 449.207 569.42 448.803 566.84 447.32C565.172 446.339 563.792 444.935 562.84 443.25C561.883 441.497 561.381 439.532 561.381 437.535C561.381 435.538 561.883 433.573 562.84 431.82C564.34 429.257 566.792 427.391 569.661 426.629C572.531 425.866 575.586 426.269 578.16 427.75C579.832 428.727 581.213 430.132 582.16 431.82C583.118 433.573 583.619 435.538 583.619 437.535C583.619 439.532 583.118 441.497 582.16 443.25H582.2Z" fill="white"/>
<path d="M611.91 420.38C610.091 421.384 608.648 422.953 607.8 424.85V419.49H599.3V455.49H607.8V436.56C607.741 435.275 607.945 433.992 608.399 432.788C608.853 431.584 609.547 430.486 610.44 429.56C611.384 428.675 612.497 427.989 613.711 427.542C614.926 427.096 616.218 426.898 617.51 426.96C618.709 426.953 619.905 427.07 621.08 427.31V419C620.232 418.848 619.371 418.778 618.51 418.79C616.209 418.731 613.932 419.28 611.91 420.38V420.38Z" fill="white"/>
<path d="M645.86 435.56L659.93 419.49H650.08L636.79 434.77V405.71H628.3V455.48H636.79V444.98L640.37 440.99L651.72 455.48H661.43L645.86 435.56Z" fill="white"/>
</svg>
