<svg width="32" height="32" viewBox="0 0 64 64" fill="none" xmlns="http://www.w3.org/2000/svg">
<circle cx="32" cy="32" r="32" fill="#E74252"/>
<g clip-path="url(#clip0)">
<path d="M34.85 39.3202L29.2825 44.8889C27.9343 46.2342 26.1097 46.993 24.2051 47.0005C22.3006 47.0079 20.4701 46.2635 19.1113 44.9289C19.1045 44.9224 19.0979 44.9157 19.0913 44.9089L19.0713 44.8889C17.7368 43.5304 16.9924 41.7 16.9999 39.7957C17.0074 37.8914 17.7661 36.0669 19.1113 34.7189L25.2488 28.5814C26.5971 27.2367 28.4216 26.4784 30.3258 26.4711C32.2301 26.4639 34.0603 27.2083 35.4188 28.5427L35.4388 28.5614L35.4588 28.5814C35.7963 28.9239 36.0913 29.2914 36.3463 29.6777L34.6788 31.3452C34.2038 31.8202 33.4788 31.8977 32.9225 31.5789C32.8482 31.4856 32.769 31.3963 32.685 31.3114C32.0584 30.6974 31.2149 30.3552 30.3376 30.3592C29.4602 30.3632 28.6198 30.713 27.9988 31.3327L21.8613 37.4702C21.2416 38.0916 20.892 38.9324 20.8885 39.8101C20.8849 40.6877 21.2278 41.5313 21.8425 42.1577C22.4691 42.7723 23.3128 43.1149 24.1904 43.1111C25.068 43.1074 25.9088 42.7576 26.53 42.1377L30.0188 38.6502C31.5391 39.3074 33.2095 39.5389 34.8513 39.3202H34.85ZM44.8888 19.0714C43.5302 17.7365 41.6996 16.9919 39.7949 16.9994C37.8903 17.0069 36.0656 17.7659 34.7175 19.1114L29.15 24.6802C30.7919 24.4619 32.4623 24.6939 33.9825 25.3514L37.47 21.8627C38.0913 21.2428 38.932 20.893 39.8097 20.8892C40.6873 20.8855 41.531 21.2281 42.1575 21.8427C42.7723 22.469 43.1151 23.3126 43.1116 24.1903C43.1081 25.0679 42.7585 25.9087 42.1388 26.5302L36.0013 32.6677C35.3805 33.2872 34.5404 33.6369 33.6634 33.6412C32.7864 33.6454 31.943 33.3037 31.3163 32.6902C31.2325 32.6052 31.1532 32.5159 31.0788 32.4227C30.8011 32.2635 30.4787 32.2001 30.1614 32.2421C29.844 32.2841 29.5493 32.4293 29.3225 32.6552L27.655 34.3227C27.91 34.7102 28.2063 35.0777 28.5425 35.4189L28.5625 35.4389L28.5825 35.4589C29.9411 36.7938 31.7718 37.5385 33.6764 37.531C35.581 37.5235 37.4057 36.7645 38.7538 35.4189L44.8913 29.2814C46.2358 27.9329 46.9939 26.1084 47.001 24.2041C47.008 22.2999 46.2633 20.4698 44.9288 19.1114L44.91 19.0914L44.89 19.0714H44.8888Z" fill="white"/>
</g>
<defs>
<clipPath id="clip0">
<rect width="30" height="30" fill="white" transform="translate(17 17)"/>
</clipPath>
</defs>
</svg>
