<svg xmlns="http://www.w3.org/2000/svg" width="32" height="32" viewBox="0 0 32 32">
    <path fill="#1C1C1C" fill-rule="evenodd" d="M24.001 18.684c-1.594.01-3.1.733-4.105 1.97l-6.798-3.128c.32-.977.32-2.031 0-3.008l6.798-3.129c1.656 1.995 4.509 2.51 6.759 1.22 2.25-1.289 3.244-4.01 2.354-6.443-.89-2.434-3.404-3.875-5.957-3.414-2.553.462-4.403 2.692-4.382 5.283.004.317.035.633.093.945l-7.037 3.235c-2.095-2.045-5.449-2.02-7.512.056-2.063 2.076-2.063 5.426 0 7.502 2.063 2.076 5.417 2.1 7.512.056l7.037 3.235c-.058.311-.09.628-.093.945 0 2.94 2.387 5.324 5.331 5.324 2.945 0 5.332-2.384 5.332-5.324 0-2.941-2.387-5.325-5.332-5.325zm0-13.311c1.473 0 2.666 1.192 2.666 2.662s-1.193 2.662-2.666 2.662c-1.472 0-2.665-1.192-2.665-2.662S22.529 5.373 24 5.373zM8.007 18.684c-1.472 0-2.666-1.192-2.666-2.662s1.194-2.663 2.666-2.663 2.666 1.192 2.666 2.663c0 1.47-1.194 2.662-2.666 2.662zM24 26.671c-1.472 0-2.665-1.192-2.665-2.662s1.193-2.663 2.665-2.663c1.473 0 2.666 1.192 2.666 2.663 0 1.47-1.193 2.662-2.666 2.662z"/>
</svg>
