<svg xmlns="http://www.w3.org/2000/svg" width="24" height="24" viewBox="0 0 24 24">
    <g fill="none" fill-rule="evenodd">
        <path fill="#E8E8E8" fill-opacity="0" d="M0 0H24V24H0z"/>
        <path fill="#3B5998" d="M20.9 2H3.1C2.492 2 2 2.492 2 3.1v17.8c0 .292.116.572.322.778.206.206.486.322.778.322h9.58v-7.75h-2.6v-3h2.6V9c-.109-1.07.26-2.132 1.008-2.904.749-.771 1.8-1.172 2.872-1.096.778-.005 1.556.035 2.33.12v2.7H17.3c-1.26 0-1.5.6-1.5 1.47v1.93h3l-.39 3H15.8V22h5.1c.292 0 .572-.116.778-.322.206-.206.322-.486.322-.778V3.1c0-.292-.116-.572-.322-.778C21.472 2.116 21.192 2 20.9 2z"/>
    </g>
</svg>
