<svg xmlns="http://www.w3.org/2000/svg" width="32" height="32" viewBox="0 0 32 32">
    <path fill="#1C1C1C" fill-rule="evenodd" d="M28 13.866h-3.333c-.357.002-.698.148-.947.406l-1.653 1.744-3.734-4.313c-.252-.273-.604-.428-.973-.428s-.721.155-.973.428l-2.267 2.299H12c-.736 0-1.333.605-1.333 1.352 0 .746.597 1.352 1.333 1.352h2.667c.354.002.695-.14.946-.392l1.72-1.812 3.734 4.313c.243.281.59.448.96.46.354.002.695-.14.946-.392l2.267-2.312H28c.736 0 1.333-.606 1.333-1.352 0-.747-.597-1.353-1.333-1.353zm-9.853 7.166l-2.534 2.57c-.25.255-.59.399-.946.399s-.697-.144-.947-.4l-6.947-7.044c-.923-.936-1.442-2.205-1.442-3.529 0-1.323.519-2.593 1.442-3.529 1.92-1.94 5.027-1.94 6.947 0 .25.256.591.4.947.4.355 0 .696-.144.946-.4 1.946-1.876 5.001-1.876 6.947 0 .297.306.557.646.773 1.014.402.561 1.158.723 1.749.374.59-.348.826-1.094.545-1.726-.33-.555-.724-1.067-1.174-1.527-2.613-2.682-6.76-3.043-9.786-.852-2.309-1.686-5.354-1.919-7.886-.601-2.53 1.317-4.12 3.962-4.114 6.847-.001 2.032.8 3.98 2.226 5.408l6.947 7.044c1.562 1.582 4.092 1.582 5.653 0L20 22.94c.517-.528.517-1.38 0-1.907-.517-.506-1.337-.506-1.853 0z"/>
</svg>
