<svg xmlns="http://www.w3.org/2000/svg" width="24" height="24" viewBox="0 0 24 24">
    <g fill="none" fill-rule="evenodd">
        <path fill="#E8E8E8" fill-opacity="0" d="M0 0H24V24H0z"/>
        <path fill="#1C1C1C" d="M9.932 17.65l-1.784 1.732c-.974.973-2.553.973-3.527 0-.974-.973-.974-2.551 0-3.524l4.575-4.58c.933-.935 2.436-.975 3.417-.091l.12.1c.398.39 1.037.383 1.426-.015.39-.397.383-1.035-.015-1.424-.057-.074-.117-.144-.181-.212-1.785-1.551-4.469-1.454-6.137.222l-4.636 4.58c-1.637 1.78-1.578 4.532.132 6.241 1.71 1.709 4.466 1.767 6.247.132l1.744-1.701c.357-.39.352-.988-.01-1.372-.364-.384-.962-.422-1.371-.088zM20.705 3.314c-1.765-1.752-4.615-1.752-6.38 0l-1.743 1.701c-.357.39-.352.988.01 1.372.364.384.962.422 1.37.088l1.744-1.731c.974-.973 2.553-.973 3.527 0 .974.973.974 2.55 0 3.523l-4.575 4.58c-.932.936-2.435.975-3.416.091l-.121-.1c-.398-.39-1.036-.383-1.426.015-.39.397-.383 1.035.015 1.424.073.075.15.146.232.212 1.787 1.546 4.467 1.45 6.137-.222l4.585-4.58c1.765-1.752 1.783-4.599.04-6.373z"/>
    </g>
</svg>
