<svg xmlns="http://www.w3.org/2000/svg" width="24" height="24" viewBox="0 0 24 24">
	<g fill="none" fill-rule="evenodd">
		<path fill="#E8E8E8" fill-opacity="0" d="M0 0H24V24H0z"/>
		<path fill="#C92228" d="M12.007 2c-2.332-.001-4.59.812-6.386 2.3-1.796 1.487-3.015 3.555-3.448 5.846-.432 2.29-.05 4.66 1.08 6.7 1.13 2.04 2.937 3.62 5.11 4.468-.088-.79-.167-2.007.033-2.871.182-.78 1.173-4.972 1.173-4.972s-.3-.597-.3-1.482c0-1.392.808-2.429 1.81-2.429.855 0 1.267.64 1.267 1.409 0 .857-.546 2.14-.829 3.328-.236.996.5 1.807 1.482 1.807 1.777 0 3.143-1.874 3.143-4.578 0-2.395-1.72-4.069-4.178-4.069-2.845 0-4.515 2.134-4.515 4.34 0 .859.33 1.782.743 2.282.036.037.061.083.074.134.012.05.011.103-.002.153l-.28 1.134c-.042.183-.145.221-.333.133-1.25-.582-2.03-2.407-2.03-3.873 0-3.156 2.291-6.051 6.608-6.051 3.469 0 6.165 2.471 6.165 5.774 0 3.447-2.172 6.221-5.19 6.221-1.014 0-1.966-.527-2.293-1.148l-.623 2.377c-.226.868-.834 1.957-1.243 2.621 1.375.425 2.826.548 4.253.361 1.427-.187 2.797-.68 4.016-1.445 1.22-.764 2.26-1.783 3.048-2.987.79-1.203 1.31-2.563 1.525-3.986.216-1.422.122-2.875-.276-4.258-.397-1.383-1.089-2.664-2.026-3.756-.938-1.091-2.101-1.967-3.409-2.569-1.307-.6-2.73-.913-4.169-.914"/>
	</g>
</svg>
