<svg xmlns="http://www.w3.org/2000/svg" width="32" height="32" viewBox="0 0 32 32">
    <path fill="#1C1C1C" fill-rule="evenodd" d="M18.663 24.017c.74 0 1.338-.595 1.338-1.329V20.03c0-.734-.599-1.329-1.338-1.329-.739 0-1.338.595-1.338 1.33v2.657c0 .734.6 1.33 1.338 1.33zm-5.352 0c.739 0 1.338-.595 1.338-1.329V20.03c0-.734-.6-1.329-1.338-1.329-.74 0-1.338.595-1.338 1.33v2.657c0 .734.599 1.33 1.338 1.33zM25.354 8.07h-1.847l-2.315-4.585c-.192-.46-.628-.774-1.128-.814-.5-.04-.98.201-1.245.625-.264.423-.267.958-.009 1.385l1.7 3.389h-9.046l1.7-3.39c.27-.642-.006-1.382-.632-1.696-.625-.314-1.389-.096-1.75.5L8.467 8.07H6.62c-1.952.03-3.6 1.45-3.904 3.366-.304 1.916.824 3.77 2.673 4.395l.99 9.914c.207 2.045 1.945 3.599 4.015 3.588h11.213c2.07.01 3.808-1.543 4.014-3.588l.99-9.914c1.854-.626 2.982-2.489 2.671-4.408-.311-1.92-1.97-3.336-3.928-3.353zm-2.422 17.41c-.07.68-.648 1.199-1.338 1.195H10.38c-.69.004-1.269-.514-1.338-1.196l-.95-9.435h15.79l-.95 9.435zm2.422-12.094H6.62c-.739 0-1.338-.595-1.338-1.33 0-.733.6-1.328 1.338-1.328h18.734c.739 0 1.338.595 1.338 1.329s-.6 1.329-1.338 1.329z"/>
</svg>
