<svg xmlns="http://www.w3.org/2000/svg" width="24" height="24" viewBox="0 0 24 24">
    <path fill="#00ACEE" fill-rule="evenodd" d="M22 5.917c-.752.32-1.547.532-2.36.629.858-.504 1.501-1.296 1.81-2.23-.806.471-1.69.803-2.61.982-1.266-1.35-3.3-1.687-4.946-.822-1.647.864-2.491 2.713-2.054 4.497-3.298-.164-6.37-1.696-8.45-4.216-.36.62-.55 1.321-.55 2.035-.003 1.346.68 2.604 1.82 3.35-.652-.017-1.29-.189-1.86-.5v.049c.01 1.914 1.39 3.557 3.3 3.93-.357.107-.727.163-1.1.168-.258-.003-.516-.026-.77-.07.541 1.638 2.079 2.759 3.83 2.792-1.443 1.115-3.224 1.724-5.06 1.73-.334 0-.668-.02-1-.06 1.874 1.19 4.059 1.821 6.29 1.818 3.11.032 6.103-1.166 8.305-3.325 2.202-2.158 3.43-5.096 3.405-8.153v-.52c.785-.576 1.461-1.28 2-2.084z"/>
</svg>
