<svg xmlns="http://www.w3.org/2000/svg" width="24" height="24" viewBox="0 0 24 24">
    <g fill="none" fill-rule="evenodd">
        <path fill="#E8E8E8" fill-opacity="0" d="M0 0H24V24H0z"/>
        <path fill="#25D366" d="M17.46 2c.429.01.856.046 1.28.11.374.071.738.192 1.08.36.369.183.706.422 1 .71.291.291.531.63.71 1 .17.342.295.705.37 1.08.055.428.089.859.1 1.29v10.91c-.01.429-.046.856-.11 1.28-.071.374-.192.738-.36 1.08-.183.369-.422.706-.71 1-.291.291-.63.531-1 .71-.342.17-.705.295-1.08.37-.428.055-.859.089-1.29.1H6.54c-.429-.01-.856-.046-1.28-.11-.374-.071-.738-.192-1.08-.36-.369-.183-.706-.422-1-.71-.291-.291-.531-.63-.71-1-.17-.342-.295-.705-.37-1.08-.055-.428-.089-.859-.1-1.29V6.54c.01-.429.046-.856.11-1.28.071-.374.192-.738.36-1.08.183-.369.422-.706.71-1 .291-.291.63-.531 1-.71.342-.17.705-.295 1.08-.37.428-.055.859-.089 1.29-.1zm-5.25 3c-3.941 0-7.148 3.207-7.15 7.15 0 1.26.329 2.49.954 3.574L5 19.429l3.79-.994c1.045.57 2.22.87 3.417.87h.003c3.94 0 7.148-3.208 7.15-7.15 0-1.91-.742-3.707-2.092-5.058C15.918 5.745 14.123 5 12.21 5zm.002 1.208c1.588 0 3.08.62 4.202 1.742 1.122 1.124 1.74 2.617 1.739 4.205-.002 3.277-2.667 5.942-5.943 5.942h-.002c-1.067 0-2.113-.286-3.025-.828l-.217-.129-2.25.59.601-2.193-.141-.224c-.595-.947-.91-2.04-.909-3.163.001-3.277 2.667-5.942 5.945-5.942zM9.68 8.848c-.12 0-.313.044-.477.223-.164.179-.625.611-.625 1.49 0 .88.64 1.73.73 1.849l.04.056c.233.334 1.357 1.927 3.011 2.641.427.184.76.294 1.019.377.428.136.817.116 1.125.07.343-.05 1.057-.432 1.206-.85.149-.416.149-.774.104-.849-.044-.074-.164-.119-.342-.208-.179-.09-1.057-.522-1.221-.582-.164-.06-.283-.089-.402.09-.119.179-.461.581-.566.7-.104.12-.208.135-.387.045-.178-.09-.754-.278-1.436-.887-.532-.473-.89-1.058-.994-1.237-.104-.18-.011-.276.078-.365.08-.08.179-.209.268-.313.09-.104.12-.179.179-.298.06-.12.03-.224-.015-.313-.045-.09-.402-.969-.551-1.326-.145-.349-.292-.302-.402-.307-.104-.005-.223-.006-.342-.006z"/>
    </g>
</svg>
