<svg width="32" height="32" viewBox="0 0 64 64" fill="none" xmlns="http://www.w3.org/2000/svg">
<circle cx="32" cy="32" r="32" fill="#C84152"/>
<path d="M20.125 21C19.1821 21 18.3171 21.3186 17.6264 21.8404L31.8306 35.0187C32.1488 35.3142 32.8512 35.3142 33.1694 35.0187L47.3759 21.8404C46.6603 21.2968 45.7806 21.0012 44.875 21H20.125ZM16.5421 23.0617C16.2027 23.6551 16 24.3431 16 25.0749V38.9274C16 39.7585 16.2546 40.525 16.6836 41.1669L16.7213 41.1438L27.1021 32.8669L16.5398 23.0617H16.5421ZM48.4579 23.0617L37.9002 32.8669L48.2787 41.1415L48.3164 41.1669C48.762 40.5015 48.9996 39.7231 49 38.9274V25.0749C49 24.3407 48.7973 23.6551 48.4579 23.0617V23.0617ZM28.3114 33.9867L17.8551 42.3258C18.5056 42.7483 19.2859 43 20.125 43H44.875C45.7141 43 46.4944 42.7483 47.1426 42.3258L36.6886 33.9867L34.3056 36.2031C33.8173 36.6544 33.1714 36.9058 32.5 36.9058C31.8286 36.9058 31.1827 36.6544 30.6944 36.2031L28.3114 33.9867V33.9867Z" fill="white"/>
</svg>
