<?xml version="1.0" encoding="UTF-8"?>
<svg width="32px" height="32px" viewBox="0 0 40 40" version="1.1" xmlns="http://www.w3.org/2000/svg" xmlns:xlink="http://www.w3.org/1999/xlink">
    <!-- Generator: Sketch 64 (93537) - https://sketch.com -->
    <title>pinterest-default</title>
    <desc>Created with Sketch.</desc>
    <g id="Elements" stroke="none" stroke-width="1" fill="none" fill-rule="evenodd">
        <g id="desktop/element/share" transform="translate(-451.000000, -24.000000)">
            <g id="content" transform="translate(237.000000, 24.000000)">
                <g id="buttons" transform="translate(150.000000, 0.000000)">
                    <g id="pinterest-default" transform="translate(64.000000, 0.000000)">
                        <circle id="Oval" fill="#C92228" cx="20" cy="20" r="20"></circle>
                        <g id="icon/line/pinterest/stroke" transform="translate(6.666667, 6.666667)">
                            <rect id="backing" fill-opacity="0" fill="#E8E8E8" x="0" y="0" width="26.6666667" height="26.6666667"></rect>
                            <path d="M19.9165428,4.4994528 C18.3595873,3.03099563 16.2049073,2.22222222 13.8494837,2.22222222 C10.2514734,2.22222222 8.03852297,3.6712348 6.81568364,4.88673868 C5.30860485,6.38470996 4.44444444,8.37374394 4.44444444,10.3438976 C4.44444444,12.8175706 5.49759715,14.7161959 7.26121596,15.422538 C7.37961226,15.4701946 7.49875957,15.4941965 7.61556547,15.4941965 C7.98763024,15.4941965 8.28242817,15.255002 8.38456707,14.871362 C8.44411863,14.6512649 8.58204148,14.1082486 8.64203483,13.8725264 C8.77041528,13.4070281 8.66668599,13.1831115 8.3866876,12.8589337 C7.87661162,12.2659606 7.63906802,11.5647834 7.63906802,10.6522332 C7.63906802,7.94166605 9.69342042,5.06091533 13.5009657,5.06091533 C16.5221034,5.06091533 18.398773,6.74790712 18.398773,9.46346563 C18.398773,11.1771069 18.0230856,12.764098 17.3406724,13.9322925 C16.8664687,14.7440173 16.0326142,15.7116026 14.7525205,15.7116026 C14.1989737,15.7116026 13.7017093,15.4882069 13.3879591,15.0987074 C13.0915708,14.7305189 12.9938496,14.2549077 13.1130853,13.7592009 C13.247739,13.1991273 13.4313858,12.6149215 13.6091128,12.0501603 C13.9332447,11.0186422 14.2396614,10.0443728 14.2396614,9.26706659 C14.2396614,7.93754276 13.4077065,7.0441767 12.1696259,7.0441767 C10.5961922,7.0441767 9.36350119,8.61424053 9.36350119,10.6185958 C9.36350119,11.6015893 9.6294069,12.3368378 9.74979119,12.6191316 C9.55156576,13.4442246 8.37352263,18.3496432 8.15007172,19.2746501 C8.02085188,19.8146281 7.24252879,24.0795906 8.53079532,24.4196539 C9.97823419,24.8017314 11.2720671,20.6479677 11.4037609,20.1786066 C11.5104943,19.7968763 11.8839286,18.3534193 12.1127692,17.4661297 C12.8115282,18.1273759 13.9366022,18.5744279 15.0313261,18.5744279 C17.0950884,18.5744279 18.9510828,17.6620079 20.2574622,16.0054417 C21.5244351,14.3986588 22.2222222,12.1591455 22.2222222,9.69975212 C22.2222222,7.77708149 21.3816969,5.88158119 19.9165428,4.4994528 Z" id="Path" fill="#FFFFFF"></path>
                        </g>
                    </g>
                </g>
            </g>
        </g>
    </g>
</svg>
