<svg width="32" height="32" viewBox="0 0 64 64" fill="none" xmlns="http://www.w3.org/2000/svg">
<circle cx="32" cy="32" r="32" fill="#4aabe8"/>
<path d="M26.435 44.914C37.7557 44.914 43.9464 35.3285 43.9464 27.0145C43.9464 26.7419 43.9464 26.4714 43.9293 26.2009C45.1391 25.3043 46.1789 24.2011 47 22.9426C45.8794 23.4508 44.6869 23.7848 43.4643 23.9329C44.75 23.1471 45.7121 21.9097 46.1707 20.4531C44.9671 21.1841 43.6444 21.7008 42.2621 21.98C41.3507 20.9763 40.1249 20.3079 38.7834 20.0834C37.4419 19.8588 36.0634 20.0911 34.8714 20.7427C32.4093 22.0844 31.1429 24.9466 31.7707 27.7194C26.8229 27.4638 22.2136 25.0765 19.0871 21.1452C17.4543 24.0202 18.2879 27.6981 20.9943 29.5445C20.0118 29.5141 19.0521 29.2434 18.2 28.7565V28.8374C18.2 31.8317 20.2657 34.4107 23.1371 35.0048C22.232 35.257 21.2798 35.2935 20.3579 35.1113C21.1657 37.6754 23.4757 39.4302 26.1093 39.4813C24.8448 40.5015 23.3866 41.2583 21.8216 41.7065C20.2566 42.1547 18.6168 42.2852 17 42.0901C19.7977 43.9317 23.0793 44.9132 26.435 44.9119" fill="white"/>
</svg>
