<svg width="32" height="32" viewBox="0 0 64 64" fill="none" xmlns="http://www.w3.org/2000/svg">
<circle cx="32" cy="32" r="32" fill="#E74252"/>
<path fill-rule="evenodd" clip-rule="evenodd" d="M38.8725 34.9775C38.5 34.7913 36.665 33.8938 36.3225 33.7688C35.98 33.645 35.7312 33.5838 35.4825 33.9563C35.2337 34.3275 34.5187 35.1638 34.3012 35.4113C34.0837 35.6588 33.865 35.69 33.4925 35.505C33.1187 35.3175 31.9175 34.9263 30.4912 33.6613C29.3812 32.6763 28.6325 31.46 28.415 31.0875C28.1962 30.7163 28.3912 30.515 28.5775 30.33C28.7462 30.1638 28.9525 29.8963 29.1375 29.68C29.325 29.4625 29.3875 29.3075 29.5112 29.0588C29.6362 28.8113 29.5737 28.595 29.48 28.4088C29.3862 28.2225 28.64 26.3938 28.33 25.65C28.0262 24.9263 27.7187 25.0251 27.49 25.0126C27.2725 25.0026 27.0225 25.0001 26.7737 25.0001C26.5848 25.005 26.399 25.0489 26.2278 25.1289C26.0566 25.2089 25.9037 25.3233 25.7787 25.4651C25.4375 25.8363 24.4725 26.735 24.4725 28.5638C24.4725 30.3913 25.81 32.1575 25.9975 32.4063C26.1837 32.6538 28.6287 36.4063 32.3725 38.015C33.2625 38.3975 33.9587 38.6263 34.5 38.7975C35.395 39.08 36.2075 39.04 36.85 38.9438C37.5687 38.8375 39.0587 38.045 39.37 37.1775C39.6825 36.31 39.6825 35.5663 39.5875 35.4113C39.495 35.2563 39.2462 35.1638 38.8725 34.9775V34.9775ZM32.0625 44.2313H32.0575C29.8352 44.2317 27.6534 43.6369 25.7387 42.5088L25.285 42.2413L20.5862 43.4688L21.84 38.9088L21.545 38.4413C20.3024 36.4736 19.6443 34.1935 19.6475 31.8663C19.65 25.0538 25.22 19.5113 32.0675 19.5113C33.6971 19.5067 35.3116 19.8243 36.818 20.446C38.3244 21.0677 39.6929 21.9812 40.845 23.1338C42.0001 24.2772 42.9161 25.6391 43.5398 27.14C44.1634 28.6409 44.4822 30.251 44.4775 31.8763C44.475 38.6888 38.9062 44.2313 32.0625 44.2313V44.2313ZM42.6287 21.3601C41.242 19.9725 39.5945 18.873 37.7811 18.1247C35.9677 17.3765 34.0242 16.9942 32.0625 17.0001C23.8287 17.0001 17.1287 23.6688 17.125 31.865C17.125 34.485 17.8125 37.0425 19.1187 39.2963L17 47L24.9187 44.9325C27.1102 46.1203 29.5635 46.7424 32.0562 46.7425H32.0625C40.295 46.7425 46.9962 40.0738 46.9999 31.8763C47.0052 29.9211 46.6214 27.9844 45.871 26.179C45.1205 24.3735 44.0184 22.7354 42.6287 21.3601" fill="white"/>
</svg>
